<?xml version="1.0" encoding="UTF-8"?>
<svg width="14px" height="14px" viewBox="0 0 14 14" version="1.1" xmlns="http://www.w3.org/2000/svg" xmlns:xlink="http://www.w3.org/1999/xlink">
    <!-- Generator: Sketch 49.2 (51160) - http://www.bohemiancoding.com/sketch -->
    <title>Group 8</title>
    <desc>Created with Sketch.</desc>
    <defs></defs>
    <g id="Product" stroke="none" stroke-width="1" fill="none" fill-rule="evenodd">
        <g id="Create-Review-1---Product-Search" transform="translate(-1299.000000, -15.000000)" fill="#333333" fill-rule="nonzero">
            <g id="Group-8" transform="translate(1299.000000, 15.000000)">
                <g id="close">
                    <path d="M8.00930655,6.80569743 L13.361707,1.45307386 C13.6942458,1.12080487 13.6942458,0.581683541 13.361707,0.249414552 C13.0291681,-0.0831381842 12.4906367,-0.0831381842 12.1580978,0.249414552 L6.80569742,5.60203812 L1.45301328,0.249414552 C1.12047441,-0.0831381842 0.581943026,-0.0831381842 0.249404154,0.249414552 C-0.083134718,0.581683541 -0.083134718,1.12080487 0.249404154,1.45307386 L5.6020883,6.80569743 L0.249404154,12.158321 C-0.083134718,12.49059 -0.083134718,13.0297113 0.249404154,13.3619803 C0.41567359,13.5279729 0.633583021,13.6111111 0.851208716,13.6111111 C1.06883441,13.6111111 1.28674384,13.5279729 1.45301328,13.3616966 L6.80569742,8.00907299 L12.1580978,13.3616966 C12.3243673,13.5279729 12.5422767,13.6111111 12.7599024,13.6111111 C12.9775281,13.6111111 13.1954375,13.5279729 13.361707,13.3616966 C13.6942458,13.0294276 13.6942458,12.4903062 13.361707,12.1580373 L8.00930655,6.80569743 Z" id="Shape"></path>
                </g>
            </g>
        </g>
    </g>
</svg>