<?xml version="1.0" encoding="UTF-8"?>
<svg width="37px" height="34px" viewBox="0 0 37 34" version="1.1" xmlns="http://www.w3.org/2000/svg" xmlns:xlink="http://www.w3.org/1999/xlink">
    <!-- Generator: Sketch 49.2 (51160) - http://www.bohemiancoding.com/sketch -->
    <title>Group 11</title>
    <desc>Created with Sketch.</desc>
    <defs>
        <linearGradient x1="50%" y1="0%" x2="50%" y2="98.0628189%" id="linearGradient-1">
            <stop stop-color="#FF0844" offset="0%"></stop>
            <stop stop-color="#FFB199" offset="100%"></stop>
        </linearGradient>
    </defs>
    <g id="Product" stroke="none" stroke-width="1" fill="none" fill-rule="evenodd">
        <g id="Create-Review-1---Product-Search" transform="translate(-132.000000, -13.000000)">
            <g id="Group-11" transform="translate(132.000000, 13.000000)">
                <g id="speech-bubble-message" fill="url(#linearGradient-1)" fill-rule="nonzero">
                    <path d="M6.38817294,31.4946153 L6.38817294,26.7873583 C2.31905885,23.8857858 0,19.7149915 0,15.253727 C0,6.84285732 8.29906074,0 18.5,0 C28.7009393,0 37,6.84285732 37,15.253727 C37,23.6645967 28.7009393,30.507454 18.5,30.507454 C17.29142,30.507454 16.0744146,30.4076924 14.8758449,30.2105581 L9.35161581,33.2472641 C8.38365461,33.7793589 7.16761894,33.4260194 6.63552413,32.4580582 C6.47325462,32.1628653 6.38817294,31.8314687 6.38817294,31.4946153 Z" id="Shape"></path>
                </g>
                <g id="noun_103603_cc" transform="translate(12.333333, 9.520000)" fill="#FFFFFF" fill-rule="nonzero">
                    <g id="Group">
                        <path d="M5.72485775,7.548952 C5.51827818,7.370928 5.28351567,7.289464 5.01127127,7.307144 C4.75218844,7.325096 4.52758323,7.423016 4.34346418,7.597912 L4.33373606,7.607976 C3.08624725,8.963352 2.24118803,10.011368 1.81744241,10.731352 C1.70385226,10.946776 1.68410989,11.180832 1.75864449,11.42604 C1.83389438,11.677368 1.99612515,11.867904 2.23947131,11.9918 C2.39254619,12.070816 2.55306024,12.1108 2.71672161,12.1108 C2.80985409,12.1108 2.90498942,12.097608 2.9988372,12.07204 C3.26035206,12.001184 3.46721775,11.841792 3.61771754,11.59128 C3.93216484,11.02008 4.66907021,10.110648 5.81226781,8.883928 C5.99567155,8.674216 6.07921897,8.441112 6.06076414,8.190736 C6.0413079,7.941856 5.92857611,7.726432 5.72485775,7.548952 Z" id="Shape"></path>
                        <path d="M2.82630606,6.06764 C3.12358608,6.202688 3.43345543,6.380712 3.75391127,6.601712 C3.91800183,6.705888 4.09997497,6.758792 4.29482357,6.758792 C4.3659247,6.758792 4.43945788,6.751584 4.51356329,6.73744 C4.791244,6.684672 5.00869617,6.549352 5.15991127,6.3342 C5.30998189,6.119456 5.35776414,5.876696 5.30225661,5.612856 C5.24689214,5.348608 5.10440374,5.141888 4.87836793,4.998408 C4.52071632,4.771968 4.13988889,4.561984 3.74575682,4.373896 C3.36192511,4.191792 2.93202788,4.0052 2.46765303,3.81956 C2.01930098,3.6414 1.88825743,3.53056 1.70471062,3.4 L1.68396683,3.386944 C1.44434025,3.25448 1.18268234,3.21504 0.915874237,3.271616 C0.644488197,3.329824 0.434475173,3.469904 0.291986772,3.688456 C0.150356736,3.906464 0.109584453,4.146776 0.169956044,4.401776 C0.229898453,4.657456 0.368095035,4.8552 0.58726394,4.993376 C0.892412291,5.1714 1.2911223,5.401648 1.72059035,5.584296 C2.17208974,5.777144 2.53360399,5.935448 2.82630606,6.06764 Z" id="Shape"></path>
                        <path d="M7.36991209,2.682328 C7.34087078,2.33852 7.32613553,2.052784 7.32613553,1.833416 C7.32613553,1.62248 7.30281665,1.51776 7.38364591,1.301112 C7.49108445,1.059576 7.48536203,0.810968 7.36576333,0.56168 C7.24673687,0.315248 7.05660928,0.14756 6.80053073,0.062968 C6.54931624,-0.019448 6.28865975,-0.005032 6.03372568,0.105672 C5.77664571,0.217464 5.60282702,0.404464 5.53029528,0.64668 C5.39896561,0.95472 5.33888014,1.395496 5.32414489,1.740256 C5.30869434,2.081072 5.3161335,2.458064 5.34660541,2.860216 C5.37664815,3.2674 5.39066809,3.51764 5.39066809,3.647928 C5.39066809,3.900344 5.49381481,4.12624 5.69696093,4.318544 C5.89982092,4.512072 6.13730159,4.610264 6.40282214,4.610264 C6.66777045,4.610264 6.90525112,4.512208 7.10839723,4.318952 C7.31197253,4.125832 7.41511925,3.899936 7.41511925,3.647928 C7.41483313,3.366952 7.39981176,3.042184 7.36991209,2.682328 Z" id="Shape"></path>
                        <path d="M12.9800352,4.35132 C12.9060729,4.107744 12.7575759,3.913808 12.5382639,3.774544 C12.3847599,3.67744 12.2185234,3.628208 12.0445617,3.628208 C11.9594406,3.628208 11.8720305,3.640176 11.795207,3.661392 C11.0221072,3.830848 9.84757937,4.231912 8.66189276,4.626448 L8.64830199,4.63148 C8.39222344,4.735656 8.20595849,4.904568 8.09437118,5.133864 C7.98149634,5.36656 7.97191127,5.61 8.06504375,5.85616 C8.15774705,6.105584 8.32999206,6.286736 8.57619943,6.394448 C8.71911701,6.457416 8.86847232,6.48924 9.01968742,6.48924 C9.11982987,6.48924 9.22211823,6.475096 9.32369129,6.447352 L9.33842654,6.442592 C10.4531551,6.052816 11.5530053,5.655968 12.2568637,5.488688 C12.512513,5.419328 12.7166606,5.278024 12.8645853,5.06804 C13.0180893,4.847992 13.0571449,4.607 12.9800352,4.35132 Z" id="Shape"></path>
                        <path d="M8.93270655,7.712968 C8.78292206,7.500128 8.57419658,7.364672 8.3116803,7.311088 C8.04501526,7.257096 7.78822141,7.312448 7.56232865,7.473472 C7.34315975,7.629328 7.20396174,7.833056 7.14831115,8.078672 C7.09122996,8.33272 7.15818234,8.579424 7.34230138,8.792536 C8.28335429,10.078824 9.09164693,11.117184 9.74557713,11.879872 C9.93169902,12.092576 10.1687505,12.209536 10.4498647,12.226944 C10.4773323,12.228712 10.5043708,12.229664 10.530837,12.229664 C10.7741832,12.229664 10.9912061,12.156768 11.1764697,12.012744 C11.384909,11.850496 11.5009312,11.63208 11.5208166,11.362664 C11.5385562,11.101544 11.4708885,10.87728 11.3180997,10.694088 C10.6693197,9.937384 9.86517582,8.932208 8.93270655,7.712968 Z" id="Shape"></path>
                    </g>
                </g>
                <path d="M28.7777778,1.36 C31.1007786,1.77489927 32.6289422,3.73382886 34.2592593,5.44" id="Path-3" fill="url(#linearGradient-1)"></path>
            </g>
        </g>
    </g>
</svg>