<?xml version="1.0" encoding="UTF-8"?>
<svg width="13px" height="13px" viewBox="0 0 13 13" version="1.1" xmlns="http://www.w3.org/2000/svg" xmlns:xlink="http://www.w3.org/1999/xlink">
    <!-- Generator: Sketch 49.2 (51160) - http://www.bohemiancoding.com/sketch -->
    <title>musica-searcher</title>
    <desc>Created with Sketch.</desc>
    <defs></defs>
    <g id="Product" stroke="none" stroke-width="1" fill="none" fill-rule="evenodd">
        <g id="Create-Review-1---Product-Search" transform="translate(-145.000000, -217.000000)" fill="#D4D4D4" fill-rule="nonzero">
            <g id="Group-6" transform="translate(131.000000, 198.000000)">
                <g id="musica-searcher" transform="translate(14.000000, 19.000000)">
                    <path d="M12.6818451,11.1454984 L9.85766164,8.32136693 C9.84265237,8.30635767 9.82504634,8.29586676 9.80936192,8.28189619 C10.3650684,7.43893621 10.6894036,6.4298875 10.6894036,5.34475375 C10.6894036,2.39291364 8.29648998,0 5.34470181,0 C2.39291364,0 0,2.39291364 0,5.34470181 C0,8.29643805 2.39286171,10.6894036 5.34464988,10.6894036 C6.42983557,10.6894036 7.43883234,10.3650684 8.28179232,9.80936192 C8.29576289,9.82499441 8.30620186,9.84260043 8.32121113,9.8576097 L11.1454465,12.6818451 C11.569705,13.1060516 12.2575346,13.1060516 12.6818451,12.6818451 C13.1060516,12.2575865 13.1060516,11.5697569 12.6818451,11.1454984 Z M5.34470181,8.83656397 C3.41614066,8.83656397 1.85278772,7.27321103 1.85278772,5.34470181 C1.85278772,3.41614066 3.41619259,1.85278772 5.34470181,1.85278772 C7.2731591,1.85278772 8.83656397,3.41619259 8.83656397,5.34470181 C8.83656397,7.27321103 7.2731591,8.83656397 5.34470181,8.83656397 Z" id="Shape"></path>
                </g>
            </g>
        </g>
    </g>
</svg>